<svg width="193" height="110" viewBox="0 0 193 110" fill="none" xmlns="http://www.w3.org/2000/svg">
<g clip-path="url(#clip0_4_163)">
<path d="M139.225 46.5153C135.092 46.1326 131.417 49.1842 131.035 53.3185C130.653 57.4528 133.705 61.1272 137.84 61.5099C141.974 61.8926 145.648 58.841 146.03 54.7067C146.412 50.5723 143.358 46.8979 139.225 46.5153ZM138.23 57.2926C136.421 57.1252 135.085 55.5175 135.252 53.7089C135.42 51.9004 137.027 50.5652 138.836 50.7326C140.644 50.9 141.98 52.5077 141.813 54.3162C141.645 56.1248 140.038 57.46 138.23 57.2926Z" fill="black"/>
<path fill-rule="evenodd" clip-rule="evenodd" d="M182.85 23.1586C183.718 24.2336 186.011 28.2446 186.539 29.2689C191.107 38.1161 193.284 48.3308 192.299 58.9901C190.044 83.402 171.912 102.489 149.032 106.998C148.37 107.129 147.703 107.247 147.032 107.353C148.823 105.569 149.702 104.511 151.032 102.513C171.934 98.2177 186.02 80.9219 188.082 58.5997C188.739 51.49 187.856 44.5869 185.713 38.2183L183.769 59.2634C183.717 59.8234 183.444 60.3395 183.012 60.697L174.291 67.9427L176.32 70.386C177.067 71.2854 176.944 72.6207 176.044 73.3678L166.272 81.4851C165.373 82.2321 164.038 82.1085 163.29 81.209L161.261 78.7656L159.632 80.1172C158.733 80.8655 157.399 80.742 156.65 79.8412C155.903 78.9417 156.026 77.6077 156.926 76.8594L158.554 75.5065L156.525 73.0631C155.777 72.1636 155.901 70.8283 156.8 70.0813L166.572 61.964C167.473 61.2171 168.807 61.3406 169.554 62.24L171.585 64.6848L179.632 57.9991L182.2 30.1957C174.513 16.1551 160.211 6.04713 143.11 4.46393C122.562 2.56169 107.5 13.0126 96 29.0126C93.8313 33.0818 90.5 38.5126 88.5 43.0126L87.5325 44.0126H83.0325C85 39.5126 89.3314 31.8646 89.5 31.5126C102.214 9.86461 120.537 -1.88136 143.499 0.246612C160.002 1.77436 174.07 10.5597 182.85 23.1586ZM167.65 66.5747L161.135 71.9862L165.195 76.873L171.709 71.4615L167.65 66.5747Z" fill="black"/>
<path d="M56.608 65.9406V44.7006H61.928V65.9406H56.608ZM55.848 39.1806C55.848 38.2473 56.1813 37.4739 56.848 36.8606C57.5147 36.2473 58.3147 35.9406 59.248 35.9406C60.208 35.9406 61.008 36.2873 61.648 36.9806C62.3147 37.6739 62.648 38.5006 62.648 39.4606C62.648 40.3939 62.3147 41.1939 61.648 41.8606C60.9813 42.5273 60.1813 42.8606 59.248 42.8606C58.2613 42.8606 57.448 42.5006 56.808 41.7806C56.168 41.0339 55.848 40.1673 55.848 39.1806Z" fill="black"/>
<path d="M68.2711 65.9406V44.7006H73.5911V46.8606C74.6045 46.0073 75.6045 45.3406 76.5911 44.8606C77.5778 44.3806 78.6711 44.1406 79.8711 44.1406C80.8578 44.1406 81.7911 44.3139 82.6711 44.6606C83.5511 44.9806 84.3245 45.4606 84.9911 46.1006C85.6578 46.7139 86.1778 47.4739 86.5511 48.3806C86.9511 49.2606 87.1511 50.2739 87.1511 51.4206V65.9406H81.8311V55.9006C81.8311 54.8606 81.7911 53.9139 81.7111 53.0606C81.6578 52.2073 81.4978 51.4873 81.2311 50.9006C80.9911 50.2873 80.6311 49.8206 80.1511 49.5006C79.6711 49.1806 79.0311 49.0206 78.2311 49.0206C76.9245 49.0206 75.8178 49.5539 74.9111 50.6206C74.0311 51.6873 73.5911 53.3006 73.5911 55.4606V65.9406H68.2711Z" fill="black"/>
<path d="M95.9849 44.7006L101.705 58.2206L107.625 44.7006H113.105L99.7449 73.7006H94.2649L99.0249 64.0206L90.5449 44.7006H95.9849Z" fill="black"/>
<path d="M121.868 36.5006V65.9406H116.548V36.5006H121.868Z" fill="black"/>
<path d="M76.968 77.0806H83.148V94.4206C83.148 97.6206 83.808 100.021 85.128 101.621C86.488 103.221 88.428 104.021 90.948 104.021C93.628 104.021 95.588 103.201 96.828 101.561C98.068 99.8806 98.688 97.6206 98.688 94.7806V77.0806H104.928V93.8206C104.928 99.0606 103.708 103.021 101.268 105.701C98.868 108.381 95.428 109.721 90.948 109.721C86.508 109.721 83.068 108.441 80.628 105.881C78.188 103.281 76.968 99.3006 76.968 93.9406V77.0806Z" fill="black"/>
<path d="M111.799 93.0406C111.799 90.8806 112.179 88.8006 112.939 86.8006C113.699 84.7606 114.799 82.9606 116.239 81.4006C117.679 79.8406 119.419 78.6006 121.459 77.6806C123.499 76.7206 125.779 76.2406 128.299 76.2406C130.739 76.2406 132.979 76.6606 135.019 77.5006C137.059 78.3406 138.819 79.5206 140.299 81.0406C141.779 82.5606 142.919 84.3606 143.719 86.4406C144.559 88.5206 144.979 90.8006 144.979 93.2806V94.3606H117.859C118.139 97.3606 119.239 99.7406 121.159 101.501C123.079 103.261 125.519 104.141 128.479 104.141C129.719 104.141 130.819 104.001 131.779 103.721C132.779 103.441 133.679 103.061 134.479 102.581C135.319 102.101 136.079 101.541 136.759 100.901C137.439 100.261 138.099 99.5606 138.739 98.8006L143.359 102.101C141.839 104.381 139.859 106.241 137.419 107.681C134.979 109.081 131.999 109.781 128.479 109.781C125.879 109.781 123.539 109.341 121.459 108.461C119.419 107.581 117.679 106.381 116.239 104.861C114.799 103.301 113.699 101.521 112.939 99.5206C112.179 97.4806 111.799 95.3206 111.799 93.0406ZM118.279 89.3806H138.679C137.999 86.8206 136.719 84.9006 134.839 83.6206C132.959 82.3406 130.799 81.7006 128.359 81.7006C125.959 81.7006 123.879 82.3206 122.119 83.5606C120.399 84.8006 119.119 86.7406 118.279 89.3806Z" fill="black"/>
<path d="M0 19.0126H4.896L29.184 78.1486L53.472 19.0126H58.464L29.76 87.9406H28.512L0 19.0126Z" fill="black"/>
<path fill-rule="evenodd" clip-rule="evenodd" d="M35.896 41.0126H31L59.512 109.941H60.76L80.388 62.4406C80.388 62.4406 80.754 53.7535 79.888 52.4406L60.184 100.149L35.896 41.0126ZM83.388 43.9406C85.1232 44.5325 85.8938 45.0757 86.888 46.4406L89.464 41.0126H84.472L83.388 43.9406Z" fill="black"/>
</g>
<defs>
<clipPath id="clip0_4_163">
<rect width="192.53" height="109.94" fill="white"/>
</clipPath>
</defs>
</svg>
