<svg width="435" height="285" viewBox="0 0 435 285" fill="none" xmlns="http://www.w3.org/2000/svg">
<g clip-path="url(#clip0_1_2)">
<path d="M137.411 134.729C137.568 169.25 131.24 270.167 131.094 272.677C124.115 272.833 117.026 272.599 109.87 271.974C47.5781 266.531 0 207.193 0 145.521C0 91.375 33.0625 44.4583 83.8646 25.7188C99.0677 20.1146 115.292 17.2344 131.505 17.0208C131.51 17.375 131.526 17.7344 131.526 18.0781C131.526 27.0938 137.276 105.531 137.411 134.729Z" fill="#242125"/>
<mask id="mask0_1_2" style="mask-type:luminance" maskUnits="userSpaceOnUse" x="5" y="0" width="427" height="282">
<path d="M5.33325 0H432V282H5.33325V0Z" fill="white"/>
</mask>
<g mask="url(#mask0_1_2)">
<path d="M430.604 8.19791C430.604 7.09895 431.344 1.94791 430.557 1.15103C429.698 0.270823 423.297 1.15103 422.151 1.15103H369.932C316.198 1.15103 262.474 0.104156 208.745 0.104156C188.578 0.104156 168.411 1.15103 148.24 1.15103C143.474 1.15103 138.354 0.614573 133.615 1.15103C131.057 1.43749 131.927 0.661449 131.526 3.0677C130.729 7.77603 131.526 13.3177 131.526 18.0781V45.1094C131.526 59.1198 131.099 73.1354 130.719 87.151C129.099 91.2604 127.219 109.911 126.979 134.182C126.969 135.083 130.766 134.901 130.755 135.823C130.729 141.656 130.542 148.583 130.755 155.677C130.797 156.828 127.26 157.396 127.302 158.516C127.844 173.219 129.052 188.766 131.234 203.688C131.396 229.297 131.526 252.615 131.526 265.609C131.526 269.719 130.375 275.755 131.526 279.74C132.078 281.677 131.5 281.193 134.141 281.193H176.26C229.078 281.193 281.896 281.891 334.714 281.891C366.677 281.891 398.641 281.193 430.604 281.193V273.583C430.604 229.266 432 184.948 432 140.635C432 96.4896 430.604 52.3437 430.604 8.19791ZM20.7812 201.599C23.9739 210.792 29.8645 215.812 29.8645 215.812L85.3541 178.214C83.8229 176.068 82.6145 173.724 81.5989 171.281L20.7812 201.599ZM79.0885 164.172L14.9218 188.646C7.91663 176.146 6.41663 161.474 6.41663 149.365L74.6198 146.203C74.8906 152.125 77.0468 157.474 78.8333 163.339C78.9218 163.615 79.0052 163.896 79.0885 164.172Z" fill="#D0D5DD"/>
</g>
<path d="M418.667 22.7135C416.078 20.6823 413.49 18.6458 410.901 16.6146C408.115 14.4271 404.469 10.2239 401.141 8.94791C396.068 6.99999 387.161 8.77603 381.635 8.77603C393.979 18.4739 406.318 28.1719 418.667 37.8646C418.667 32.8177 418.667 27.7656 418.667 22.7135ZM418.667 52.3333C405.646 42.1042 392.625 31.875 379.604 21.6458C375.031 18.0521 368.99 11.0469 363.479 8.97916C358.286 7.03124 349.578 8.77603 343.938 8.77603C368.849 28.3437 393.755 47.9167 418.667 67.4844C418.667 62.4323 418.667 57.3802 418.667 52.3333ZM416.078 80.5937C409.615 75.2865 402.917 70.25 396.339 65.0833C377.297 50.125 358.255 35.1667 339.214 20.2083C334.474 16.4844 329.734 12.7604 324.995 9.03645C324.995 14.8646 322.875 21.9531 327.255 25.9635C333.313 31.5156 340.37 36.2708 346.833 41.3437C365.859 56.2917 384.885 71.2396 403.911 86.1823C406.755 88.4167 414.521 97.2552 418.667 96.3229C418.667 90.4844 420.714 84.3958 416.078 80.5937ZM328.344 57.1094C337.026 63.9323 345.714 70.7552 354.396 77.5781C361.542 83.1927 368.984 91.0781 377.026 95.3594C382.349 98.1927 391.438 96.3229 397.547 96.3229C373.359 77.3229 349.177 58.3281 324.995 39.3281C324.995 43.4479 323.563 50.0312 324.995 53.8281C325.537 55.2708 326.995 56.0469 328.344 57.1094ZM335.042 92.6615C338.922 95.7135 339.333 96.3229 344.109 96.3229C349.068 96.3229 354.026 96.3229 358.984 96.3229C347.656 87.4219 336.323 78.5208 324.995 69.6198C324.995 73.526 323.547 80.6198 324.995 84.1198C326.344 87.3854 332.193 90.4219 335.042 92.6615ZM283.88 235.667C261.156 235.609 241.797 250.833 239.073 273.885C244 273.885 248.927 273.885 253.854 273.885C257.125 253.927 281.505 242.885 298.661 254.099C302.583 256.667 305.828 260.292 308.083 264.391C309.391 266.771 310.391 272.953 312.021 273.885C314.792 275.469 322.818 273.885 326.177 273.885C323.745 252.156 305.641 235.729 283.88 235.667ZM269.573 212.276C264.865 210.203 261.026 206.901 258.406 202.448C257.25 200.479 256.339 198.349 255.682 196.161C255.354 195.073 254.964 189.859 254.354 189.422C252 187.719 242.74 189.422 239.792 189.422C241.281 242.474 325.089 240.958 327.411 189.422C322.5 189.422 317.594 189.422 312.682 189.422C311.156 210.312 287.625 220.214 269.573 212.276ZM297.865 9.67707C290.781 17.3646 283.703 25.0573 276.62 32.7552C283.703 32.7552 290.781 32.7552 297.865 32.7552C297.865 25.0573 297.865 17.3646 297.865 9.67707ZM276.365 54.875C276.365 47.2708 276.365 39.6667 276.365 32.0677C276.365 31.9792 276.365 31.8906 276.365 31.7969C276.365 24.1927 276.365 16.5937 276.365 8.99478C269.286 16.6875 262.208 24.375 255.125 32.0677C262.125 32.0677 269.12 32.0677 276.115 32.0677C269.12 39.6667 262.125 47.2708 255.125 54.875C262.208 54.875 269.286 54.875 276.365 54.875ZM254.208 31.5937C247.214 39.1927 240.214 46.7917 233.219 54.3958C240.214 54.3958 247.214 54.3958 254.208 54.3958C247.214 62 240.214 69.5989 233.219 77.1979C240.302 77.1979 247.375 77.1979 254.458 77.1979C254.458 69.5989 254.458 62 254.458 54.3958C254.458 54.3021 254.458 54.2135 254.458 54.125C254.458 46.6146 254.458 39.1042 254.458 31.5937C254.458 31.5 254.458 31.4114 254.458 31.3177C254.458 23.7187 254.458 16.1146 254.458 8.51561C247.375 16.2031 240.302 23.8958 233.219 31.5937C240.214 31.5937 247.214 31.5937 254.208 31.5937ZM323.76 97.3385C323.76 67.7083 323.76 38.0781 323.76 8.44791C320.016 12.1719 316.266 15.901 312.521 19.6302C286.479 45.5312 260.438 71.4375 234.396 97.3385C264.182 97.3385 293.974 97.3385 323.76 97.3385ZM230.599 189.422C222.49 189.422 214.385 189.422 206.281 189.422C187.479 189.422 168.682 189.422 149.88 189.422C147.906 189.422 144.422 188.693 142.604 189.422C141.615 189.812 141.318 189.708 141.245 189.625C141.255 189.75 141.224 190.115 140.87 191.031C140.464 192.078 140.094 200.615 140.901 201.333C141.339 201.729 143.839 201.333 144.37 201.333C174.375 201.333 204.38 201.333 234.385 201.333C234.385 199.573 235.594 190.599 234.385 189.422C234 189.047 231.047 189.422 230.599 189.422ZM141.245 189.625C141.193 189.568 141.229 189.526 141.245 189.625V189.625ZM141.245 213.448C141.193 213.391 141.229 213.354 141.245 213.448V213.448ZM230.599 213.245C222.49 213.245 214.385 213.245 206.281 213.245C187.479 213.245 168.682 213.245 149.88 213.245C147.906 213.245 144.422 212.521 142.604 213.245C141.615 213.641 141.318 213.536 141.245 213.448C141.255 213.573 141.224 213.937 140.87 214.854C140.464 215.901 140.094 224.438 140.901 225.161C141.339 225.552 143.839 225.161 144.37 225.161C174.375 225.161 204.38 225.161 234.385 225.161C234.385 223.396 235.594 214.422 234.385 213.245C234 212.87 231.047 213.245 230.599 213.245ZM141.245 237.271C141.193 237.219 141.229 237.177 141.245 237.271V237.271ZM230.599 237.068C222.49 237.068 214.385 237.068 206.281 237.068C187.479 237.068 168.682 237.068 149.88 237.068C147.906 237.068 144.422 236.344 142.604 237.068C141.615 237.464 141.318 237.359 141.245 237.271C141.255 237.396 141.224 237.76 140.87 238.677C140.464 239.724 140.094 248.26 140.901 248.984C141.339 249.38 143.839 248.984 144.37 248.984C174.375 248.984 204.38 248.984 234.385 248.984C234.385 247.224 235.594 238.245 234.385 237.068C234 236.693 231.047 237.068 230.599 237.068ZM230.599 260.896C222.49 260.896 214.385 260.896 206.281 260.896C187.479 260.896 168.682 260.896 149.88 260.896C147.906 260.896 144.422 260.167 142.604 260.896C141.615 261.286 141.318 261.182 141.245 261.094C141.255 261.224 141.224 261.583 140.87 262.505C140.464 263.552 140.094 272.089 140.901 272.807C141.339 273.203 143.839 272.807 144.37 272.807C174.375 272.807 204.38 272.807 234.385 272.807C234.385 271.047 235.594 262.073 234.385 260.896C234 260.521 231.047 260.896 230.599 260.896ZM141.245 261.094C141.193 261.042 141.229 261 141.245 261.094V261.094ZM415.849 97.8177C411.135 96.6615 404.651 97.8177 399.818 97.8177C382.797 97.8177 365.781 97.8177 348.76 97.8177C342.37 97.8177 329.594 97.8177 329.594 97.8177C327.573 97.8177 325.385 97.2969 324.516 98.5365C323.057 100.604 324.516 109.068 324.516 111.526C324.516 119.51 324.516 127.5 324.516 135.484C324.516 150.734 324.516 165.984 324.516 181.234C324.516 182.807 323.938 186.427 324.958 187.214C326.755 188.599 335.12 187.214 337.313 187.214C364.219 187.214 391.12 187.214 418.026 187.214C418.026 174.427 418.026 161.641 418.026 148.849C418.026 139.286 418.026 129.724 418.026 120.161C418.026 113.823 418.849 106.87 418.026 100.583C417.594 97.25 418.745 98.526 415.849 97.8177ZM152.438 98.0208C179.339 98.0208 206.245 98.0208 233.151 98.0208C233.151 85.2344 233.151 72.4427 233.151 59.6562C233.151 50.0937 233.151 40.5312 233.151 30.9687C233.151 24.6354 233.969 17.6823 233.151 11.3906C232.719 8.05728 233.87 9.33853 230.974 8.62499C226.26 7.46874 219.776 8.62499 214.943 8.62499C197.922 8.62499 180.901 6.58853 163.885 6.58853C157.495 6.58853 151.104 8.62499 144.719 8.62499C142.698 8.62499 140.505 8.10936 139.635 9.34374C138.182 11.4167 139.635 19.8802 139.635 22.3333C139.635 30.3229 139.635 38.3073 139.635 46.2917C139.635 61.5417 139.635 76.7917 139.635 92.0417C139.635 93.6094 139.063 97.2344 140.083 98.0208C141.88 99.4062 150.245 98.0208 152.438 98.0208ZM130.906 155.958C131.052 170.328 131.271 184.698 131.484 199.073C127.203 199.156 122.917 198.839 118.714 198.109C94.0625 193.854 76.0677 170.276 76.0677 146.349C76.0677 124.266 87.8907 106.344 109.099 98.7187C115.865 96.2865 123.432 94.8906 131.083 94.6667C130.865 103.453 130.698 112.234 130.698 121.021C130.698 126.042 130.724 131.062 130.75 136.083C129.76 136.167 128.776 136.365 127.844 136.698C123.776 138.161 121.125 141.823 121.125 146.052C121.125 150.865 124.938 155.5 129.927 155.927C130.255 155.953 130.578 155.953 130.906 155.958Z" fill="#7F56D9"/>
<path d="M130.844 194.578C126.969 194.646 123.089 194.344 119.281 193.672C96.6823 189.667 80.1771 167.484 80.1771 144.974C80.1771 124.198 91.0209 107.333 110.469 100.156C116.635 97.8854 123.521 96.5781 130.484 96.3542C130.568 92.9896 130.656 89.625 130.75 86.2604C123.469 86.4062 116.198 87.7239 109.375 90.2396C86.0886 98.8333 70.9271 120.339 70.9271 145.167C70.9271 173.437 92.7396 200.635 121.297 203.135C124.557 203.417 127.786 203.526 130.969 203.458C130.932 200.568 130.891 197.682 130.849 194.792C130.844 194.719 130.844 194.646 130.844 194.578Z" fill="#667085"/>
<path d="M192.648 133.32L178.696 164.936H177.032L163.08 133.384C162.099 131.208 161.181 129.309 160.328 127.688C159.517 126.024 158.6 124.659 157.576 123.592C156.552 122.483 155.357 121.672 153.992 121.16C152.669 120.605 151.005 120.328 149 120.328V120.2H171.848V120.328C169.885 120.328 168.456 120.605 167.56 121.16C166.707 121.672 166.237 122.483 166.152 123.592C166.109 124.659 166.387 126.024 166.984 127.688C167.624 129.309 168.413 131.208 169.352 133.384L180.488 159.048L191.624 133.32C192.605 131.144 193.395 129.245 193.992 127.624C194.589 125.96 194.845 124.595 194.76 123.528C194.717 122.419 194.269 121.608 193.416 121.096C192.563 120.541 191.133 120.264 189.128 120.264V120.136H206.664V120.264C204.701 120.264 203.037 120.541 201.672 121.096C200.307 121.608 199.112 122.419 198.088 123.528C197.107 124.595 196.189 125.96 195.336 127.624C194.525 129.245 193.629 131.144 192.648 133.32ZM208.268 158.28C208.268 161.48 209.249 163.08 211.212 163.08C212.151 163.08 213.025 162.781 213.836 162.184C214.647 161.587 215.479 160.797 216.332 159.816V159.944C215.649 161.437 214.689 162.653 213.452 163.592C212.257 164.531 210.785 165 209.036 165C207.244 165 205.772 164.488 204.62 163.464C203.511 162.44 202.956 160.84 202.956 158.664V140.936C202.956 140.552 202.935 140.189 202.892 139.848C202.849 139.507 202.7 139.208 202.444 138.952C202.231 138.696 201.889 138.504 201.42 138.376C200.993 138.205 200.353 138.12 199.5 138.12V137.992C201.548 137.907 203.276 137.416 204.684 136.52C206.092 135.581 207.244 134.557 208.14 133.448H208.268V158.28ZM201.42 129.032C201.42 128.179 201.697 127.475 202.252 126.92C202.807 126.365 203.489 126.088 204.3 126.088C205.153 126.088 205.857 126.365 206.412 126.92C206.967 127.475 207.244 128.179 207.244 129.032C207.244 129.843 206.967 130.525 206.412 131.08C205.857 131.635 205.153 131.912 204.3 131.912C203.489 131.912 202.807 131.635 202.252 131.08C201.697 130.525 201.42 129.843 201.42 129.032ZM234.525 133C236.018 133 237.469 133.192 238.877 133.576C240.327 133.96 241.607 134.621 242.717 135.56C243.869 136.499 244.786 137.736 245.469 139.272C246.194 140.808 246.557 142.707 246.557 144.968V158.28C246.557 161.48 247.538 163.08 249.501 163.08C250.439 163.08 251.293 162.781 252.061 162.184C252.871 161.587 253.703 160.797 254.557 159.816V159.944C253.917 161.437 252.978 162.653 251.741 163.592C250.546 164.531 249.074 165 247.325 165C245.533 165 244.061 164.488 242.909 163.464C241.799 162.44 241.245 160.84 241.245 158.664V142.728C241.245 141.533 241.095 140.403 240.797 139.336C240.498 138.269 240.05 137.331 239.453 136.52C238.855 135.709 238.087 135.069 237.149 134.6C236.253 134.131 235.165 133.896 233.885 133.896C232.605 133.896 231.431 134.131 230.365 134.6C229.298 135.069 228.317 135.709 227.421 136.52C226.567 137.331 225.821 138.269 225.181 139.336C224.541 140.403 224.007 141.512 223.581 142.664V158.28C223.581 161.48 224.562 163.08 226.525 163.08C227.463 163.08 228.338 162.781 229.149 162.184C229.959 161.587 230.791 160.797 231.645 159.816V159.944C230.962 161.437 230.002 162.653 228.765 163.592C227.57 164.531 226.098 165 224.349 165C222.557 165 221.085 164.488 219.933 163.464C218.823 162.44 218.269 160.84 218.269 158.664V140.936C218.269 139.997 218.055 139.293 217.629 138.824C217.245 138.355 216.306 138.12 214.812 138.12V137.992C216.861 137.907 218.589 137.416 219.997 136.52C221.405 135.581 222.557 134.557 223.453 133.448H223.581V140.808C223.965 139.912 224.455 139.016 225.053 138.12C225.693 137.181 226.461 136.328 227.357 135.56C228.253 134.792 229.277 134.173 230.429 133.704C231.623 133.235 232.989 133 234.525 133ZM253.448 133C255.496 133.043 257.202 133.555 258.568 134.536C259.976 135.475 261.042 137.075 261.768 139.336L268.744 158.28C269.426 160.328 270.237 161.715 271.176 162.44L279.048 146.184C280.072 144.051 280.925 142.173 281.608 140.552C282.333 138.931 282.717 137.565 282.76 136.456C282.845 135.347 282.525 134.515 281.8 133.96C281.117 133.405 279.88 133.128 278.088 133.128V133H293.256V133.128C291.464 133.128 289.949 133.405 288.712 133.96C287.474 134.515 286.365 135.347 285.384 136.456C284.445 137.565 283.549 138.931 282.696 140.552C281.885 142.173 280.968 144.051 279.944 146.184L266.056 174.728C265.288 176.221 264.242 177.48 262.92 178.504C261.597 179.571 260.04 180.104 258.248 180.104C257.352 180.104 256.477 179.933 255.624 179.592C254.813 179.251 254.194 178.696 253.768 177.928C253.384 177.288 253.234 176.627 253.32 175.944C253.405 175.304 253.618 174.685 253.96 174.088C254.301 173.491 254.77 172.936 255.368 172.424C255.965 171.955 256.584 171.549 257.224 171.208L257.608 171.464C256.882 172.189 256.562 173.021 256.648 173.96C256.776 174.899 257.074 175.645 257.544 176.2C257.928 176.669 258.354 176.989 258.824 177.16C259.336 177.373 259.848 177.48 260.36 177.48C261.341 177.48 262.322 177.139 263.304 176.456C264.285 175.773 265.074 174.877 265.672 173.768L270.024 164.808C266.568 164.168 264.306 162.12 263.24 158.664L256.264 139.784C255.794 138.333 255.197 137.16 254.472 136.264C253.789 135.368 252.829 134.92 251.592 134.92C250.738 134.92 250.013 135.219 249.416 135.816C248.818 136.413 248.264 137.203 247.752 138.184L247.688 138.056C247.773 137.715 247.901 137.267 248.072 136.712C248.242 136.157 248.541 135.624 248.968 135.112C249.394 134.557 249.97 134.067 250.696 133.64C251.421 133.213 252.338 133 253.448 133ZM301.518 158.28C301.518 161.48 302.499 163.08 304.462 163.08C305.401 163.08 306.275 162.781 307.086 162.184C307.897 161.587 308.729 160.797 309.582 159.816V159.944C308.899 161.437 307.939 162.653 306.702 163.592C305.507 164.531 304.035 165 302.286 165C300.494 165 299.022 164.488 297.87 163.464C296.761 162.44 296.206 160.84 296.206 158.664V127.688C296.206 127.304 296.185 126.941 296.142 126.6C296.099 126.259 295.971 125.96 295.758 125.704C295.545 125.448 295.203 125.256 294.734 125.128C294.265 124.957 293.603 124.872 292.75 124.872V124.744C294.841 124.659 296.569 124.168 297.934 123.272C299.342 122.333 300.494 121.309 301.39 120.2H301.518V158.28Z" fill="#667085"/>
<path d="M362.736 228.24L352.272 251.952H351.024L340.56 228.288C339.824 226.656 339.136 225.232 338.496 224.016C337.888 222.768 337.2 221.744 336.432 220.944C335.664 220.112 334.768 219.504 333.744 219.12C332.752 218.704 331.504 218.496 330 218.496V218.4H347.136V218.496C345.664 218.496 344.592 218.704 343.92 219.12C343.28 219.504 342.928 220.112 342.864 220.944C342.832 221.744 343.04 222.768 343.488 224.016C343.968 225.232 344.56 226.656 345.264 228.288L353.616 247.536L361.968 228.24C362.704 226.608 363.296 225.184 363.744 223.968C364.192 222.72 364.384 221.696 364.32 220.896C364.288 220.064 363.952 219.456 363.312 219.072C362.672 218.656 361.6 218.448 360.096 218.448V218.352H373.248V218.448C371.776 218.448 370.528 218.656 369.504 219.072C368.48 219.456 367.584 220.064 366.816 220.896C366.08 221.696 365.392 222.72 364.752 223.968C364.144 225.184 363.472 226.608 362.736 228.24ZM379.856 252C378.928 252 377.92 251.888 376.832 251.664C375.776 251.44 374.784 251.008 373.856 250.368C372.96 249.728 372.208 248.832 371.6 247.68C371.024 246.528 370.736 245.024 370.736 243.168V234.528C370.736 233.728 370.704 233.008 370.64 232.368C370.608 231.728 370.512 231.2 370.352 230.784C370.224 230.336 370.016 230 369.728 229.776C369.44 229.552 369.04 229.44 368.528 229.44C367.792 229.44 367.12 229.68 366.512 230.16C365.904 230.608 365.296 231.184 364.688 231.888V231.792C365.168 230.672 365.872 229.76 366.8 229.056C367.76 228.352 368.896 228 370.208 228C371.84 228 372.992 228.576 373.664 229.728C374.368 230.848 374.72 232.416 374.72 234.432V244.704C374.72 245.888 374.88 246.896 375.2 247.728C375.552 248.56 375.984 249.248 376.496 249.792C377.04 250.304 377.648 250.688 378.32 250.944C378.992 251.2 379.68 251.328 380.384 251.328C381.312 251.328 382.16 251.152 382.928 250.8C383.728 250.416 384.432 249.936 385.04 249.36C385.68 248.752 386.24 248.064 386.72 247.296C387.232 246.496 387.648 245.664 387.968 244.8V233.04C387.968 232.112 387.824 231.28 387.536 230.544C387.248 229.808 386.64 229.44 385.712 229.44C385.04 229.44 384.4 229.664 383.792 230.112C383.216 230.528 382.592 231.12 381.92 231.888V231.792C382.464 230.608 383.184 229.68 384.08 229.008C384.976 228.336 386.08 228 387.392 228C388.8 228 389.904 228.416 390.704 229.248C391.536 230.08 391.952 231.264 391.952 232.8V246.384C391.952 246.672 391.968 246.944 392 247.2C392.032 247.456 392.128 247.68 392.288 247.872C392.448 248.064 392.704 248.224 393.056 248.352C393.408 248.448 393.888 248.496 394.496 248.496V248.592C393.888 248.624 393.264 248.736 392.624 248.928C392.016 249.088 391.424 249.312 390.848 249.6C390.272 249.888 389.744 250.24 389.264 250.656C388.784 251.072 388.384 251.52 388.064 252H387.968V246.144C387.712 246.72 387.36 247.36 386.912 248.064C386.464 248.736 385.904 249.36 385.232 249.936C384.592 250.512 383.824 251.008 382.928 251.424C382.032 251.808 381.008 252 379.856 252ZM412.799 237.072C412.799 235.76 412.639 234.56 412.319 233.472C411.999 232.384 411.551 231.456 410.975 230.688C410.431 229.888 409.775 229.264 409.007 228.816C408.239 228.368 407.407 228.144 406.511 228.144C405.615 228.144 404.735 228.368 403.871 228.816C403.007 229.232 402.223 229.84 401.519 230.64C400.815 231.408 400.207 232.352 399.695 233.472C399.183 234.56 398.847 235.76 398.687 237.072H412.799ZM406.463 227.52C407.967 227.52 409.295 227.792 410.447 228.336C411.631 228.848 412.639 229.568 413.471 230.496C414.303 231.392 414.943 232.464 415.391 233.712C415.871 234.928 416.159 236.256 416.255 237.696H398.591C398.399 239.168 398.495 240.688 398.879 242.256C399.295 243.792 399.951 245.2 400.847 246.48C401.743 247.76 402.863 248.816 404.207 249.648C405.583 250.448 407.151 250.848 408.911 250.848C410.767 250.848 412.383 250.416 413.759 249.552C415.135 248.656 416.239 247.6 417.071 246.384V246.816C416.847 247.456 416.463 248.112 415.919 248.784C415.407 249.456 414.735 250.064 413.903 250.608C413.103 251.152 412.143 251.6 411.023 251.952C409.935 252.304 408.703 252.48 407.327 252.48C405.567 252.48 403.887 252.176 402.287 251.568C400.687 250.96 399.279 250.112 398.063 249.024C396.847 247.936 395.871 246.64 395.135 245.136C394.431 243.6 394.079 241.92 394.079 240.096C394.079 238.304 394.415 236.656 395.087 235.152C395.759 233.616 396.655 232.288 397.775 231.168C398.927 230.016 400.239 229.12 401.711 228.48C403.215 227.84 404.799 227.52 406.463 227.52Z" fill="#667085"/>
</g>
<defs>
<clipPath id="clip0_1_2">
<rect width="434.33" height="285" fill="white"/>
</clipPath>
</defs>
</svg>
